<svg width="120" height="29" viewBox="0 0 120 29" fill="none" xmlns="http://www.w3.org/2000/svg">
<path d="M12.5213 28.8C10.0413 28.8 7.85458 28.1867 5.96125 26.96C4.09458 25.7333 2.65458 24.0533 1.64125 21.92C0.627917 19.7867 0.12125 17.4133 0.12125 14.8C0.12125 12.1867 0.627917 9.81333 1.64125 7.68C2.65458 5.54667 4.09458 3.86667 5.96125 2.64C7.85458 1.41333 10.0413 0.8 12.5213 0.8C15.0013 0.8 17.1746 1.41333 19.0413 2.64C20.9346 3.86667 22.3879 5.54667 23.4013 7.68C24.4146 9.81333 24.9213 12.1867 24.9213 14.8C24.9213 17.4133 24.4146 19.7867 23.4013 21.92C22.3879 24.0533 20.9346 25.7333 19.0413 26.96C17.1746 28.1867 15.0013 28.8 12.5213 28.8ZM12.5213 27.2C14.2546 27.2 15.7479 26.6933 17.0013 25.68C18.2813 24.6667 19.2546 23.24 19.9213 21.4C20.5879 19.5333 20.9213 17.3333 20.9213 14.8C20.9213 12.2667 20.5879 10.08 19.9213 8.24C19.2546 6.37333 18.2813 4.93333 17.0013 3.92C15.7479 2.90666 14.2546 2.4 12.5213 2.4C10.7879 2.4 9.28125 2.90666 8.00125 3.92C6.74792 4.93333 5.78792 6.37333 5.12125 8.24C4.45458 10.08 4.12125 12.2667 4.12125 14.8C4.12125 17.3333 4.45458 19.5333 5.12125 21.4C5.78792 23.24 6.74792 24.6667 8.00125 25.68C9.28125 26.6933 10.7879 27.2 12.5213 27.2ZM30.3978 10.8H27.5978V9.2H30.3978V8C30.3978 3.46667 32.7311 1.2 37.3978 1.2C39.0778 1.2 40.2111 1.4 40.7978 1.8C41.2511 2.14667 41.7178 2.74667 42.1978 3.6L40.9978 4.6C40.1978 3.4 38.9311 2.8 37.1978 2.8C35.0645 2.8 33.9978 4.53333 33.9978 8V9.2H39.5978V10.8H33.9978V28H30.3978V10.8ZM43.8744 10.8H41.0744V9.2H43.8744V8C43.8744 3.46667 46.2077 1.2 50.8744 1.2C52.5544 1.2 53.6877 1.4 54.2744 1.8C54.7277 2.14667 55.1944 2.74667 55.6744 3.6L54.4744 4.6C53.6744 3.4 52.4077 2.8 50.6744 2.8C48.541 2.8 47.4744 4.53333 47.4744 8V9.2H53.0744V10.8H47.4744V28H43.8744V10.8ZM63.4422 28.4C61.6289 28.4 60.0955 27.9733 58.8422 27.12C57.5889 26.24 56.6422 25.0667 56.0022 23.6C55.3622 22.1067 55.0422 20.44 55.0422 18.6C55.0422 16.7867 55.3622 15.1333 56.0022 13.64C56.6422 12.1467 57.5622 10.9733 58.7622 10.12C59.9889 9.24 61.4155 8.8 63.0422 8.8C65.7355 8.8 67.7355 9.56 69.0422 11.08C70.3755 12.5733 71.0422 14.7467 71.0422 17.6L70.9622 19.2H58.8422C58.8422 21.44 59.3222 23.2667 60.2822 24.68C61.2422 26.0933 62.5622 26.8 64.2422 26.8C65.4955 26.8 66.5489 26.5333 67.4022 26C68.2822 25.4667 69.0955 24.6667 69.8422 23.6L70.6422 24.2C69.7622 25.6667 68.7355 26.7333 67.5622 27.4C66.3889 28.0667 65.0155 28.4 63.4422 28.4ZM67.2422 17.6C67.2422 15.2533 66.8955 13.4667 66.2022 12.24C65.5089 11.0133 64.4555 10.4 63.0422 10.4C62.2422 10.4 61.5222 10.72 60.8822 11.36C60.2422 11.9733 59.7355 12.8267 59.3622 13.92C59.0155 15.0133 58.8422 16.24 58.8422 17.6H67.2422ZM75.9734 14C75.9734 12.64 75.7868 11.64 75.4134 11C75.0401 10.3333 74.2934 10 73.1734 10H72.7734V9.2H75.9734C76.9868 9.2 77.7468 9.34667 78.2534 9.64C78.7868 9.90667 79.1601 10.36 79.3734 11H79.5734C80.0534 10.3867 80.6934 9.86667 81.4934 9.44C82.3201 9.01333 83.2801 8.8 84.3734 8.8C85.4401 8.8 86.2401 9 86.7734 9.4C87.2268 9.74667 87.6934 10.3467 88.1734 11.2L86.5734 12.4C86.2801 12 85.8534 11.7067 85.2934 11.52C84.7334 11.3067 84.0934 11.2 83.3734 11.2C82.5734 11.2 81.8401 11.3867 81.1734 11.76C80.5068 12.1067 79.9734 12.5867 79.5734 13.2V28H75.9734V14ZM97.1119 28.4C95.6185 28.4 94.4452 27.9733 93.5919 27.12C92.7385 26.2667 92.3119 24.96 92.3119 23.2V10.8H89.5119V9.2H92.3119V5.6L94.3119 3.2H95.9119V9.2H100.712V10.8H95.9119V23.2C95.9119 25.6 96.8452 26.8 98.7119 26.8C99.3519 26.8 99.8852 26.7333 100.312 26.6C100.765 26.4667 101.232 26.2667 101.712 26L102.112 26.8C101.499 27.2533 100.819 27.64 100.072 27.96C99.3252 28.2533 98.3385 28.4 97.1119 28.4ZM112.388 28.4C110.574 28.4 109.041 27.9733 107.788 27.12C106.534 26.24 105.588 25.0667 104.948 23.6C104.308 22.1067 103.988 20.44 103.988 18.6C103.988 16.7867 104.308 15.1333 104.948 13.64C105.588 12.1467 106.508 10.9733 107.708 10.12C108.934 9.24 110.361 8.8 111.988 8.8C114.681 8.8 116.681 9.56 117.988 11.08C119.321 12.5733 119.988 14.7467 119.988 17.6L119.908 19.2H107.788C107.788 21.44 108.268 23.2667 109.228 24.68C110.188 26.0933 111.508 26.8 113.188 26.8C114.441 26.8 115.494 26.5333 116.348 26C117.228 25.4667 118.041 24.6667 118.788 23.6L119.588 24.2C118.708 25.6667 117.681 26.7333 116.508 27.4C115.334 28.0667 113.961 28.4 112.388 28.4ZM116.188 17.6C116.188 15.2533 115.841 13.4667 115.148 12.24C114.454 11.0133 113.401 10.4 111.988 10.4C111.188 10.4 110.468 10.72 109.828 11.36C109.188 11.9733 108.681 12.8267 108.308 13.92C107.961 15.0133 107.788 16.24 107.788 17.6H116.188Z" fill="#1E1E1E"/>
</svg>
