<svg width="127" height="24" viewBox="0 0 127 24" fill="#000000" xmlns="http://www.w3.org/2000/svg">
<path d="M0 23.2727V0H10.0494C11.7773 0 13.2892 0.340909 14.5852 1.02273C15.8812 1.70455 16.8891 2.66288 17.6091 3.89773C18.3291 5.13258 18.6891 6.57576 18.6891 8.22727C18.6891 9.89394 18.3177 11.3371 17.575 12.5568C16.8399 13.7765 15.8054 14.7159 14.4715 15.375C13.1452 16.0341 11.5954 16.3636 9.82199 16.3636H3.81966V11.4545H8.54877C9.29148 11.4545 9.9243 11.3258 10.4472 11.0682C10.9777 10.803 11.3832 10.428 11.6636 9.94318C11.9516 9.45833 12.0956 8.88636 12.0956 8.22727C12.0956 7.56061 11.9516 6.99242 11.6636 6.52273C11.3832 6.04545 10.9777 5.68182 10.4472 5.43182C9.9243 5.17424 9.29148 5.04545 8.54877 5.04545H6.32063V23.2727H0Z" fill="#000000"/>
<path d="M44.0322 12C44.0322 18.6274 38.6576 24 32.0276 24C25.3976 24 20.0229 18.6274 20.0229 12C20.0229 5.37258 25.3976 0 32.0276 0C38.6576 0 44.0322 5.37258 44.0322 12Z" fill="#000000"/>
<path d="M45.3661 23.2727V0H55.4154C57.1434 0 58.6553 0.314394 59.9513 0.943182C61.2472 1.57197 62.2552 2.47727 62.9752 3.65909C63.6951 4.84091 64.0551 6.25758 64.0551 7.90909C64.0551 9.57576 63.6838 10.9811 62.9411 12.125C62.2059 13.2689 61.1714 14.1326 59.8376 14.7159C58.5113 15.2992 56.9615 15.5909 55.1881 15.5909H49.1857V10.6818H53.9148C54.6576 10.6818 55.2904 10.5909 55.8133 10.4091C56.3438 10.2197 56.7493 9.92045 57.0297 9.51136C57.3177 9.10227 57.4617 8.56818 57.4617 7.90909C57.4617 7.24242 57.3177 6.70076 57.0297 6.28409C56.7493 5.85985 56.3438 5.54924 55.8133 5.35227C55.2904 5.14773 54.6576 5.04545 53.9148 5.04545H51.6867V23.2727H45.3661ZM59.0077 12.5909L64.8282 23.2727H57.9619L52.2778 12.5909H59.0077Z" fill="#000000"/>
<path d="M66.1128 5.09091V0H86.3479V5.09091H79.3451V23.2727H73.1155V5.09091H66.1128Z" fill="#000000"/>
<path d="M91.8358 23.2727H85.015L92.6998 0H101.339L109.024 23.2727H102.203L97.1106 6.40909H96.9287L91.8358 23.2727ZM90.5626 14.0909H103.386V18.8182H90.5626V14.0909Z" fill="#000000"/>
<path d="M111.267 23.2727V0H117.587V18.1818H127V23.2727H111.267Z" fill="#000000"/>
</svg>
